{"asset":{"version":"2.0","generator":"babylon.js glTF exporter for Autodesk Maya 2018.6 v20230922.2"},"scene":0,"scenes":[{"nodes":[0]}],"nodes":[{"children":[1,2],"scale":[100.0,100.0,100.0],"name":"root"},{"mesh":0,"translation":[-0.0269950647,0.125937387,0.0228444729],"scale":[1.94881141,26.267168,11.4977932],"name":"Group4"},{"camera":0,"translation":[0.5611141,0.168024987,-0.0263046231],"rotation":[-0.0437753573,0.715495944,0.04501519,0.6957894],"name":"camera1"}],"cameras":[{"perspective":{"yfov":0.6605947,"zfar":10000.0,"znear":0.1},"type":"perspective","name":"camera1"}],"meshes":[{"primitives":[{"attributes":{"POSITION":1,"TANGENT":2,"NORMAL":3,"TEXCOORD_0":4},"indices":0,"material":0}],"name":"Group4"}],"accessors":[{"bufferView":0,"componentType":5123,"count":36,"type":"SCALAR","name":"accessorIndices"},{"bufferView":1,"componentType":5126,"count":24,"max":[0.005,0.005,0.005],"min":[-0.005,-0.005,-0.005],"type":"VEC3","name":"accessorPositions"},{"bufferView":2,"componentType":5126,"count":24,"type":"VEC4","name":"accessorTangents"},{"bufferView":1,"byteOffset":288,"componentType":5126,"count":24,"type":"VEC3","name":"accessorNormals"},{"bufferView":3,"componentType":5126,"count":24,"type":"VEC2","name":"accessorUVs"},{"bufferView":4,"componentType":5126,"count":2,"max":[8.291667],"min":[0.0],"type":"SCALAR","name":"accessorAnimationInput"},{"bufferView":5,"componentType":5126,"count":2,"type":"VEC4","name":"accessorAnimationRotations"},{"bufferView":4,"byteOffset":8,"componentType":5126,"count":2,"max":[8.291667],"min":[0.0],"type":"SCALAR","name":"accessorAnimationInput"},{"bufferView":6,"componentType":5126,"count":2,"type":"VEC3","name":"accessorAnimationPositions"}],"bufferViews":[{"buffer":0,"byteLength":72,"name":"bufferViewScalar"},{"buffer":0,"byteOffset":72,"byteLength":576,"byteStride":12,"name":"bufferViewFloatVec3"},{"buffer":0,"byteOffset":648,"byteLength":384,"byteStride":16,"name":"bufferViewFloatVec4"},{"buffer":0,"byteOffset":1032,"byteLength":192,"byteStride":8,"name":"bufferViewFloatVec2"},{"buffer":0,"byteOffset":1224,"byteLength":16,"name":"bufferViewAnimationFloatScalar"},{"buffer":0,"byteOffset":1240,"byteLength":32,"name":"bufferViewAnimationFloatVec4"},{"buffer":0,"byteOffset":1272,"byteLength":24,"name":"bufferViewAnimationFloatVec3"}],"buffers":[{"uri":"Door.bin","byteLength":1296}],"materials":[{"pbrMetallicRoughness":{"baseColorTexture":{"index":2},"metallicFactor":0.0,"metallicRoughnessTexture":{"index":3}},"normalTexture":{"index":0},"emissiveTexture":{"index":1,"scale":0.0},"emissiveFactor":[1.0,1.0,1.0],"name":"StingrayPBS1"}],"textures":[{"sampler":0,"source":0,"name":"Normal.jpg"},{"sampler":0,"source":1,"name":"Emission.jpg"},{"sampler":0,"source":2,"name":"Texture.jpg"},{"sampler":0,"source":3,"name":"file110.jpg"}],"images":[{"uri":"Normal.jpg"},{"uri":"Emission.jpg"},{"uri":"Texture.jpg"},{"uri":"file110.jpg"}],"samplers":[{"magFilter":9729,"minFilter":9987}],"animations":[{"channels":[{"sampler":0,"target":{"node":2,"path":"rotation"}},{"sampler":1,"target":{"node":2,"path":"translation"}}],"samplers":[{"input":5,"output":6},{"input":7,"output":8}],"name":"All Animations"}]}