{"asset":{"version":"2.0","generator":"babylon.js glTF exporter for Autodesk Maya 2018.6 v20230922.2"},"scene":0,"scenes":[{"nodes":[0,1]}],"nodes":[{"mesh":0,"translation":[2.33849168,0.0,-1.27662528],"scale":[16.1969566,16.1969566,16.1969566],"name":"pCube9"},{"camera":0,"translation":[0.0230344068,0.399999976,0.412283927],"rotation":[-0.0314107575,0.0,0.0,0.999506533],"name":"camera1"}],"cameras":[{"perspective":{"yfov":0.6605947,"zfar":10000.0,"znear":0.1},"type":"perspective","name":"camera1"}],"meshes":[{"primitives":[{"attributes":{"POSITION":1,"TANGENT":2,"NORMAL":3,"TEXCOORD_0":4},"indices":0,"material":0}],"name":"pCube9"}],"accessors":[{"bufferView":0,"componentType":5123,"count":36,"type":"SCALAR","name":"accessorIndices"},{"bufferView":1,"componentType":5126,"count":24,"max":[0.005,0.005,0.005],"min":[-0.005,-0.005,-0.005],"type":"VEC3","name":"accessorPositions"},{"bufferView":2,"componentType":5126,"count":24,"type":"VEC4","name":"accessorTangents"},{"bufferView":1,"byteOffset":288,"componentType":5126,"count":24,"type":"VEC3","name":"accessorNormals"},{"bufferView":3,"componentType":5126,"count":24,"type":"VEC2","name":"accessorUVs"}],"bufferViews":[{"buffer":0,"byteLength":72,"name":"bufferViewScalar"},{"buffer":0,"byteOffset":72,"byteLength":576,"byteStride":12,"name":"bufferViewFloatVec3"},{"buffer":0,"byteOffset":648,"byteLength":384,"byteStride":16,"name":"bufferViewFloatVec4"},{"buffer":0,"byteOffset":1032,"byteLength":192,"byteStride":8,"name":"bufferViewFloatVec2"}],"buffers":[{"uri":"DoorTest.bin","byteLength":1224}],"materials":[{"pbrMetallicRoughness":{"baseColorTexture":{"index":2},"metallicRoughnessTexture":{"index":3}},"normalTexture":{"index":0},"emissiveTexture":{"index":1,"scale":0.0},"emissiveFactor":[1.0,1.0,1.0],"name":"MainLevelMat"}],"textures":[{"sampler":0,"source":0,"name":"CombinedNormal.jpg"},{"sampler":0,"source":1,"name":"Emission.jpg"},{"sampler":0,"source":2,"name":"Occlusion.jpg"},{"sampler":0,"source":3,"name":"file7file15.jpg"}],"images":[{"uri":"CombinedNormal.jpg"},{"uri":"Emission.jpg"},{"uri":"Occlusion.jpg"},{"uri":"file7file15.jpg"}],"samplers":[{"magFilter":9729,"minFilter":9987}]}