{"asset":{"version":"2.0","generator":"babylon.js glTF exporter for Autodesk Maya 2018.6 v20230922.2"},"scene":0,"scenes":[{"nodes":[0,1]}],"nodes":[{"mesh":0,"name":"DoorLQNew:Group2"},{"camera":0,"translation":[0,0,0],"rotation":[0.0],"name":"camera1"}],"cameras":[{"perspective":{"yfov":0.6605947,"zfar":10000.0,"znear":0.1},"type":"perspective","name":"camera1"}],"meshes":[{"primitives":[{"attributes":{"POSITION":1,"TANGENT":2,"NORMAL":3,"TEXCOORD_0":4},"indices":0,"material":0}],"name":"DoorLQNew:Group2"}],"accessors":[{"bufferView":0,"componentType":5123,"count":36,"type":"SCALAR","name":"accessorIndices"},{"bufferView":1,"componentType":5126,"count":24,"max":[2.17101383,0.646622837,-1.0254637],"min":[2.14797425,0.00406455854,-1.45881653],"type":"VEC3","name":"accessorPositions"},{"bufferView":2,"componentType":5126,"count":24,"type":"VEC4","name":"accessorTangents"},{"bufferView":1,"byteOffset":288,"componentType":5126,"count":24,"type":"VEC3","name":"accessorNormals"},{"bufferView":3,"componentType":5126,"count":24,"type":"VEC2","name":"accessorUVs"}],"bufferViews":[{"buffer":0,"byteLength":72,"name":"bufferViewScalar"},{"buffer":0,"byteOffset":72,"byteLength":576,"byteStride":12,"name":"bufferViewFloatVec3"},{"buffer":0,"byteOffset":648,"byteLength":384,"byteStride":16,"name":"bufferViewFloatVec4"},{"buffer":0,"byteOffset":1032,"byteLength":192,"byteStride":8,"name":"bufferViewFloatVec2"}],"buffers":[{"uri":"Door.bin","byteLength":1224}],"materials":[{"pbrMetallicRoughness":{"baseColorTexture":{"index":2},"metallicRoughnessTexture":{"index":3}},"normalTexture":{"index":0},"emissiveTexture":{"index":1,"scale":0.0},"emissiveFactor":[1.0,1.0,1.0],"name":"DoorMat"}],"textures":[{"sampler":0,"source":0,"name":"DoorNormal.jpg"},{"sampler":0,"source":1,"name":"Void.jpg"},{"sampler":0,"source":2,"name":"MetalBare0018_M.jpg"},{"sampler":0,"source":3,"name":"Occlusion.jpg"}],"images":[{"uri":"DoorNormal.jpg"},{"uri":"Void.jpg"},{"uri":"MetalBare0018_M.jpg"},{"uri":"Occlusion.jpg"}],"samplers":[{"magFilter":9729,"minFilter":9987}]}