{"asset":{"version":"2.0","generator":"babylon.js glTF exporter for Autodesk Maya 2018.6 v20230922.2"},"scene":0,"scenes":[{"nodes":[0]}],"nodes":[{"children":[1,2],"scale":[100.0,100.0,100.0],"name":"root"},{"mesh":0,"translation":[0.02151806,0.0448890664,-0.0282627512],"scale":[0.40101555,5.64604855,5.64604855],"name":"Key1"},{"camera":0,"translation":[0.2180362,0.280274153,0.109856434],"rotation":[-0.363890648,0.456261218,0.211789414,0.7839353],"name":"camera1"}],"cameras":[{"perspective":{"yfov":0.6605947,"zfar":10000.0,"znear":0.1},"type":"perspective","name":"camera1"}],"meshes":[{"primitives":[{"attributes":{"POSITION":1,"TANGENT":2,"NORMAL":3,"TEXCOORD_0":4},"indices":0,"material":0}],"name":"Key1"}],"accessors":[{"bufferView":0,"componentType":5123,"count":120,"type":"SCALAR","name":"accessorIndices"},{"bufferView":1,"componentType":5126,"count":54,"max":[0.005,0.005,0.00445341738],"min":[-0.004999981,-0.00881125,-0.008016244],"type":"VEC3","name":"accessorPositions"},{"bufferView":2,"componentType":5126,"count":54,"type":"VEC4","name":"accessorTangents"},{"bufferView":1,"byteOffset":648,"componentType":5126,"count":54,"type":"VEC3","name":"accessorNormals"},{"bufferView":3,"componentType":5126,"count":54,"type":"VEC2","name":"accessorUVs"},{"bufferView":4,"componentType":5126,"count":2,"max":[8.291667],"min":[0.0],"type":"SCALAR","name":"accessorAnimationInput"},{"bufferView":5,"componentType":5126,"count":2,"type":"VEC4","name":"accessorAnimationRotations"},{"bufferView":4,"byteOffset":8,"componentType":5126,"count":2,"max":[8.291667],"min":[0.0],"type":"SCALAR","name":"accessorAnimationInput"},{"bufferView":6,"componentType":5126,"count":2,"type":"VEC3","name":"accessorAnimationPositions"}],"bufferViews":[{"buffer":0,"byteLength":240,"name":"bufferViewScalar"},{"buffer":0,"byteOffset":240,"byteLength":1296,"byteStride":12,"name":"bufferViewFloatVec3"},{"buffer":0,"byteOffset":1536,"byteLength":864,"byteStride":16,"name":"bufferViewFloatVec4"},{"buffer":0,"byteOffset":2400,"byteLength":432,"byteStride":8,"name":"bufferViewFloatVec2"},{"buffer":0,"byteOffset":2832,"byteLength":16,"name":"bufferViewAnimationFloatScalar"},{"buffer":0,"byteOffset":2848,"byteLength":32,"name":"bufferViewAnimationFloatVec4"},{"buffer":0,"byteOffset":2880,"byteLength":24,"name":"bufferViewAnimationFloatVec3"}],"buffers":[{"uri":"Key2.bin","byteLength":2904}],"materials":[{"pbrMetallicRoughness":{"baseColorTexture":{"index":0},"metallicFactor":0.0,"metallicRoughnessTexture":{"index":1}},"normalTexture":{"index":0},"emissiveTexture":{"index":0},"emissiveFactor":[1.0,1.0,1.0],"name":"Key1PBS"}],"textures":[{"sampler":0,"source":0,"name":"Key2 texture.jpg"},{"sampler":0,"source":1,"name":"file130.jpg"}],"images":[{"uri":"Key2 texture.jpg"},{"uri":"file130.jpg"}],"samplers":[{"magFilter":9729,"minFilter":9987}],"animations":[{"channels":[{"sampler":0,"target":{"node":2,"path":"rotation"}},{"sampler":1,"target":{"node":2,"path":"translation"}}],"samplers":[{"input":5,"output":6},{"input":7,"output":8}],"name":"All Animations"}]}