{"asset":{"version":"2.0","generator":"babylon.js glTF exporter for Autodesk Maya 2018.6 v20230922.2"},"scene":0,"scenes":[{"nodes":[0,1]}],"nodes":[{"mesh":0,"translation":[0.0,0.137185052,0.0],"rotation":[-0.7071068,0.0,0.0,0.7071067],"scale":[93.06947,1310.36011,1310.36011],"name":"Key1"},{"camera":0,"translation":[0.0230344068,0.399999976,0.412283927],"rotation":[-0.0314107575,0.0,0.0,0.999506533],"name":"camera2"}],"cameras":[{"perspective":{"yfov":0.6605947,"zfar":10000.0,"znear":0.1},"type":"perspective","name":"camera2"}],"meshes":[{"primitives":[{"attributes":{"POSITION":1,"TANGENT":2,"NORMAL":3,"TEXCOORD_0":4},"indices":0,"material":0}],"name":"Key1"}],"accessors":[{"bufferView":0,"componentType":5123,"count":120,"type":"SCALAR","name":"accessorIndices"},{"bufferView":1,"componentType":5126,"count":54,"max":[5E-05,8.01624337E-05,5E-05],"min":[-4.99998059E-05,-4.4534172E-05,-8.81125E-05],"type":"VEC3","name":"accessorPositions"},{"bufferView":2,"componentType":5126,"count":54,"type":"VEC4","name":"accessorTangents"},{"bufferView":1,"byteOffset":648,"componentType":5126,"count":54,"type":"VEC3","name":"accessorNormals"},{"bufferView":3,"componentType":5126,"count":54,"type":"VEC2","name":"accessorUVs"}],"bufferViews":[{"buffer":0,"byteLength":240,"name":"bufferViewScalar"},{"buffer":0,"byteOffset":240,"byteLength":1296,"byteStride":12,"name":"bufferViewFloatVec3"},{"buffer":0,"byteOffset":1536,"byteLength":864,"byteStride":16,"name":"bufferViewFloatVec4"},{"buffer":0,"byteOffset":2400,"byteLength":432,"byteStride":8,"name":"bufferViewFloatVec2"}],"buffers":[{"uri":"Key3.bin","byteLength":2832}],"materials":[{"pbrMetallicRoughness":{"baseColorTexture":{"index":1,"scale":0.0},"metallicRoughnessTexture":{"index":2}},"normalTexture":{"index":0},"emissiveTexture":{"index":1,"scale":0.0},"emissiveFactor":[1.0,1.0,1.0],"name":"Key3"}],"textures":[{"sampler":0,"source":0,"name":"SlimeN.jpg"},{"sampler":0,"source":1,"name":"Key3Texture.jpg"},{"sampler":0,"source":2,"name":"file28file30.jpg"}],"images":[{"uri":"SlimeN.jpg"},{"uri":"Key3Texture.jpg"},{"uri":"file28file30.jpg"}],"samplers":[{"magFilter":9729,"minFilter":9987}]}