{"asset":{"version":"2.0","generator":"babylon.js glTF exporter for Autodesk Maya 2018.6 v20230922.2"},"scene":0,"scenes":[{"nodes":[0,2,3,10,12,13]}],"nodes":[{"children":[1],"translation":[0.0,-0.00131011091,-0.230334654],"scale":[1.11263931,1.0,1.17662072],"name":"Final"},{"name":"transform1"},{"mesh":0,"translation":[0.0,-0.00131011091,0.0],"name":"Concept1"},{"children":[4,9],"translation":[0.343011022,0.00617989,-0.223679468],"scale":[0.6704891,0.6704891,0.6704891],"name":"group1"},{"children":[5,6,7,8],"name":"WallSegmentCombinedHQ"},{"mesh":1,"translation":[1.0468539,0.120897174,-0.30323723],"scale":[3.22950339,24.6083813,61.0631561],"name":"WallSegment"},{"mesh":2,"translation":[1.02710879,0.209555224,-0.302932],"scale":[0.474786073,1.33047593,28.7332325],"name":"pCube3"},{"mesh":3,"translation":[1.02710879,0.167990059,-0.302932],"scale":[0.474786073,3.35364676,28.7332325],"name":"pCube1"},{"mesh":4,"translation":[1.02710879,0.226037055,-0.302932],"scale":[0.474786073,1.59620118,28.7332325],"name":"pCube2"},{"mesh":5,"translation":[1.0468539,0.120897174,-0.30323723],"scale":[3.22950339,24.6083813,61.0631561],"name":"WallSegmentLQ"},{"children":[11],"translation":[7.93809433E-17,0.723917842,-0.06045305],"rotation":[-1.0,0.0,0.0,6.123234E-17],"scale":[1.11263931,1.0,1.17662072],"name":"Final1"},{"name":"transform2"},{"mesh":6,"name":"Final2"},{"camera":0,"translation":[0.0230344068,0.228320435,0.412283927],"rotation":[-0.0314107575,0.0,0.0,0.999506533],"name":"camera1"}],"cameras":[{"perspective":{"yfov":0.6605947,"zfar":10000.0,"znear":0.1},"type":"perspective","name":"camera1"}],"meshes":[{"primitives":[{"attributes":{"POSITION":1,"TANGENT":2,"NORMAL":3,"TEXCOORD_0":4},"indices":0,"material":0}],"name":"Concept1"},{"primitives":[{"attributes":{"POSITION":6,"TANGENT":7,"NORMAL":8,"TEXCOORD_0":9},"indices":5,"material":1}],"name":"WallSegment"},{"primitives":[{"attributes":{"POSITION":11,"TANGENT":12,"NORMAL":13,"TEXCOORD_0":14},"indices":10,"material":1}],"name":"pCube3"},{"primitives":[{"attributes":{"POSITION":16,"TANGENT":17,"NORMAL":18,"TEXCOORD_0":19},"indices":15,"material":1}],"name":"pCube1"},{"primitives":[{"attributes":{"POSITION":21,"TANGENT":22,"NORMAL":23,"TEXCOORD_0":24},"indices":20,"material":1}],"name":"pCube2"},{"primitives":[{"attributes":{"POSITION":26,"TANGENT":27,"NORMAL":28,"TEXCOORD_0":29},"indices":25,"material":1}],"name":"WallSegmentLQ"},{"primitives":[{"attributes":{"POSITION":31,"TANGENT":32,"NORMAL":33,"TEXCOORD_0":34},"indices":30,"material":0}],"name":"Final2"}],"accessors":[{"bufferView":0,"componentType":5123,"count":2370,"type":"SCALAR","name":"accessorIndices"},{"bufferView":1,"componentType":5126,"count":1580,"max":[5.706323,0.777851,5.706323],"min":[-5.706323,-0.009572011,-5.706323],"type":"VEC3","name":"accessorPositions"},{"bufferView":2,"componentType":5126,"count":1580,"type":"VEC4","name":"accessorTangents"},{"bufferView":1,"byteOffset":18960,"componentType":5126,"count":1580,"type":"VEC3","name":"accessorNormals"},{"bufferView":3,"componentType":5126,"count":1580,"type":"VEC2","name":"accessorUVs"},{"bufferView":0,"byteOffset":4740,"componentType":5123,"count":1836,"type":"SCALAR","name":"accessorIndices"},{"bufferView":1,"byteOffset":37920,"componentType":5126,"count":784,"max":[0.0119208023,0.0184323117,0.005],"min":[-0.00864379853,-0.005,-0.005],"type":"VEC3","name":"accessorPositions"},{"bufferView":2,"byteOffset":25280,"componentType":5126,"count":784,"type":"VEC4","name":"accessorTangents"},{"bufferView":1,"byteOffset":47328,"componentType":5126,"count":784,"type":"VEC3","name":"accessorNormals"},{"bufferView":3,"byteOffset":12640,"componentType":5126,"count":784,"type":"VEC2","name":"accessorUVs"},{"bufferView":0,"byteOffset":8412,"componentType":5123,"count":36,"type":"SCALAR","name":"accessorIndices"},{"bufferView":1,"byteOffset":56736,"componentType":5126,"count":24,"max":[0.005,0.005,0.005],"min":[-0.005,-0.00753186457,-0.005],"type":"VEC3","name":"accessorPositions"},{"bufferView":2,"byteOffset":37824,"componentType":5126,"count":24,"type":"VEC4","name":"accessorTangents"},{"bufferView":1,"byteOffset":57024,"componentType":5126,"count":24,"type":"VEC3","name":"accessorNormals"},{"bufferView":3,"byteOffset":18912,"componentType":5126,"count":24,"type":"VEC2","name":"accessorUVs"},{"bufferView":0,"byteOffset":8484,"componentType":5123,"count":36,"type":"SCALAR","name":"accessorIndices"},{"bufferView":1,"byteOffset":57312,"componentType":5126,"count":24,"max":[0.005,0.005,0.005],"min":[-0.005,-0.005,-0.005],"type":"VEC3","name":"accessorPositions"},{"bufferView":2,"byteOffset":38208,"componentType":5126,"count":24,"type":"VEC4","name":"accessorTangents"},{"bufferView":1,"byteOffset":57600,"componentType":5126,"count":24,"type":"VEC3","name":"accessorNormals"},{"bufferView":3,"byteOffset":19104,"componentType":5126,"count":24,"type":"VEC2","name":"accessorUVs"},{"bufferView":0,"byteOffset":8556,"componentType":5123,"count":36,"type":"SCALAR","name":"accessorIndices"},{"bufferView":1,"byteOffset":57888,"componentType":5126,"count":24,"max":[0.005,0.005,0.005],"min":[-0.005,-0.005,-0.005],"type":"VEC3","name":"accessorPositions"},{"bufferView":2,"byteOffset":38592,"componentType":5126,"count":24,"type":"VEC4","name":"accessorTangents"},{"bufferView":1,"byteOffset":58176,"componentType":5126,"count":24,"type":"VEC3","name":"accessorNormals"},{"bufferView":3,"byteOffset":19296,"componentType":5126,"count":24,"type":"VEC2","name":"accessorUVs"},{"bufferView":0,"byteOffset":8628,"componentType":5123,"count":30,"type":"SCALAR","name":"accessorIndices"},{"bufferView":1,"byteOffset":58464,"componentType":5126,"count":20,"max":[0.005,0.01843231,0.005],"min":[-0.00747954659,-0.005,-0.005],"type":"VEC3","name":"accessorPositions"},{"bufferView":2,"byteOffset":38976,"componentType":5126,"count":20,"type":"VEC4","name":"accessorTangents"},{"bufferView":1,"byteOffset":58704,"componentType":5126,"count":20,"type":"VEC3","name":"accessorNormals"},{"bufferView":3,"byteOffset":19488,"componentType":5126,"count":20,"type":"VEC2","name":"accessorUVs"},{"bufferView":0,"byteOffset":8688,"componentType":5123,"count":3366,"type":"SCALAR","name":"accessorIndices"},{"bufferView":1,"byteOffset":58944,"componentType":5126,"count":2244,"max":[6.34907961,0.630125642,6.483844],"min":[-6.34907961,-0.00433320226,-6.944513],"type":"VEC3","name":"accessorPositions"},{"bufferView":2,"byteOffset":39296,"componentType":5126,"count":2244,"type":"VEC4","name":"accessorTangents"},{"bufferView":1,"byteOffset":85872,"componentType":5126,"count":2244,"type":"VEC3","name":"accessorNormals"},{"bufferView":3,"byteOffset":19648,"componentType":5126,"count":2244,"type":"VEC2","name":"accessorUVs"}],"bufferViews":[{"buffer":0,"byteLength":15420,"name":"bufferViewScalar"},{"buffer":0,"byteOffset":15420,"byteLength":112800,"byteStride":12,"name":"bufferViewFloatVec3"},{"buffer":0,"byteOffset":128220,"byteLength":75200,"byteStride":16,"name":"bufferViewFloatVec4"},{"buffer":0,"byteOffset":203420,"byteLength":37600,"byteStride":8,"name":"bufferViewFloatVec2"}],"buffers":[{"uri":"Level3.bin","byteLength":241020}],"materials":[{"pbrMetallicRoughness":{"baseColorTexture":{"index":2},"metallicFactor":0.0,"metallicRoughnessTexture":{"index":2}},"normalTexture":{"index":0},"emissiveTexture":{"index":1,"scale":0.0},"emissiveFactor":[1.0,1.0,1.0],"name":"MainLevelMat"},{"pbrMetallicRoughness":{"baseColorFactor":[0.5,0.5,0.5,1.0],"metallicFactor":0.0,"roughnessFactor":0.450053632},"name":"lambert1"}],"textures":[{"sampler":0,"source":0,"name":"TilesNormal.jpg"},{"sampler":0,"source":1,"name":"Emission.jpg"},{"sampler":0,"source":2,"name":"Texture.jpg"}],"images":[{"uri":"TilesNormal.jpg"},{"uri":"Emission.jpg"},{"uri":"Texture.jpg"}],"samplers":[{"magFilter":9729,"minFilter":9987}]}