{"asset":{"version":"2.0","generator":"babylon.js glTF exporter for Autodesk Maya 2018.6 v20230922.2"},"scene":0,"scenes":[{"nodes":[0,1]}],"nodes":[{"mesh":0,"name":"pCube9"},{"camera":0,"translation":[0.0230344068,0.399999976,0.412283927],"rotation":[-0.0314107575,0.0,0.0,0.999506533],"name":"camera2"}],"cameras":[{"perspective":{"yfov":0.6605947,"zfar":10000.0,"znear":0.1},"type":"perspective","name":"camera2"}],"meshes":[{"primitives":[{"attributes":{"POSITION":1,"TANGENT":2,"NORMAL":3,"TEXCOORD_0":4},"indices":0,"material":0}],"name":"pCube9"}],"accessors":[{"bufferView":0,"componentType":5123,"count":264,"type":"SCALAR","name":"accessorIndices"},{"bufferView":1,"componentType":5126,"count":83,"max":[0.110725969,0.10847047,0.1092212],"min":[-0.260468036,0.0965818539,-0.25900048],"type":"VEC3","name":"accessorPositions"},{"bufferView":2,"componentType":5126,"count":83,"type":"VEC4","name":"accessorTangents"},{"bufferView":1,"byteOffset":996,"componentType":5126,"count":83,"type":"VEC3","name":"accessorNormals"},{"bufferView":3,"componentType":5126,"count":83,"type":"VEC2","name":"accessorUVs"}],"bufferViews":[{"buffer":0,"byteLength":528,"name":"bufferViewScalar"},{"buffer":0,"byteOffset":528,"byteLength":1992,"byteStride":12,"name":"bufferViewFloatVec3"},{"buffer":0,"byteOffset":2520,"byteLength":1328,"byteStride":16,"name":"bufferViewFloatVec4"},{"buffer":0,"byteOffset":3848,"byteLength":664,"byteStride":8,"name":"bufferViewFloatVec2"}],"buffers":[{"uri":"Slime.bin","byteLength":4512}],"materials":[{"pbrMetallicRoughness":{"baseColorTexture":{"index":1,"scale":0.0},"metallicRoughnessTexture":{"index":2}},"normalTexture":{"index":0},"emissiveTexture":{"index":1,"scale":0.0},"emissiveFactor":[1.0,1.0,1.0],"name":"Slime"}],"textures":[{"sampler":0,"source":0,"name":"SlimeN.jpg"},{"sampler":0,"source":1,"name":"Slime.jpg"},{"sampler":0,"source":2,"name":"file30file29.jpg"}],"images":[{"uri":"SlimeN.jpg"},{"uri":"Slime.jpg"},{"uri":"file30file29.jpg"}],"samplers":[{"magFilter":9729,"minFilter":9987}]}