{"asset":{"version":"2.0","generator":"babylon.js glTF exporter for Autodesk Maya 2018.6 v20230922.2"},"scene":0,"scenes":[{"nodes":[0,1]}],"nodes":[{"mesh":0,"name":"polySurface1174"},{"camera":0,"translation":[0.0230344068,0.399999976,0.412283927],"rotation":[-0.0314107575,0.0,0.0,0.999506533],"name":"camera1"}],"cameras":[{"perspective":{"yfov":0.6605947,"zfar":10000.0,"znear":0.1},"type":"perspective","name":"camera1"}],"meshes":[{"primitives":[{"attributes":{"POSITION":1,"TANGENT":2,"NORMAL":3,"TEXCOORD_0":4},"indices":0,"material":0}],"name":"polySurface1174"}],"accessors":[{"bufferView":0,"componentType":5123,"count":192,"type":"SCALAR","name":"accessorIndices"},{"bufferView":1,"componentType":5126,"count":104,"max":[2.05790758,0.5049957,-1.01718366],"min":[2.0492382,0.106187895,-1.44018555],"type":"VEC3","name":"accessorPositions"},{"bufferView":2,"componentType":5126,"count":104,"type":"VEC4","name":"accessorTangents"},{"bufferView":1,"byteOffset":1248,"componentType":5126,"count":104,"type":"VEC3","name":"accessorNormals"},{"bufferView":3,"componentType":5126,"count":104,"type":"VEC2","name":"accessorUVs"}],"bufferViews":[{"buffer":0,"byteLength":384,"name":"bufferViewScalar"},{"buffer":0,"byteOffset":384,"byteLength":2496,"byteStride":12,"name":"bufferViewFloatVec3"},{"buffer":0,"byteOffset":2880,"byteLength":1664,"byteStride":16,"name":"bufferViewFloatVec4"},{"buffer":0,"byteOffset":4544,"byteLength":832,"byteStride":8,"name":"bufferViewFloatVec2"}],"buffers":[{"uri":"Spikes.bin","byteLength":5376}],"materials":[{"pbrMetallicRoughness":{"baseColorTexture":{"index":2},"metallicRoughnessTexture":{"index":3}},"normalTexture":{"index":0},"emissiveTexture":{"index":1,"scale":0.0},"emissiveFactor":[1.0,1.0,1.0],"name":"SpikesMat"}],"textures":[{"sampler":0,"source":0,"name":"SpikeNormal.jpg"},{"sampler":0,"source":1,"name":"Void.jpg"},{"sampler":0,"source":2,"name":"Texture.jpg"},{"sampler":0,"source":3,"name":"file19file18.jpg"}],"images":[{"uri":"SpikeNormal.jpg"},{"uri":"Void.jpg"},{"uri":"Texture.jpg"},{"uri":"file19file18.jpg"}],"samplers":[{"magFilter":9729,"minFilter":9987}]}