# This file uses centimeters as units for non-parametric coordinates.

mtllib Cube4-UV.mtl
g default
v -0.500000 -0.500000 0.500000
v 0.500000 -0.500000 0.500000
v -0.500000 0.500000 0.500000
v 0.500000 0.500000 0.500000
v -0.500000 0.500000 -0.500000
v 0.500000 0.500000 -0.500000
v -0.500000 -0.500000 -0.500000
v 0.500000 -0.500000 -0.500000
vt 0.033053 0.657416
vt 0.340809 0.657416
vt 0.340809 0.965172
vt 0.033053 0.965172
vt 0.347659 0.657416
vt 0.655415 0.657416
vt 0.655415 0.965172
vt 0.347659 0.965172
vt 0.347659 0.034828
vt 0.655415 0.034828
vt 0.655415 0.342584
vt 0.347659 0.342584
vt 0.295026 0.346122
vt 0.602782 0.346122
vt 0.602782 0.653878
vt 0.295026 0.653878
vt 0.033053 0.034828
vt 0.340809 0.034828
vt 0.340809 0.342584
vt 0.033053 0.342584
vt 0.608221 0.346122
vt 0.915977 0.346122
vt 0.915977 0.653878
vt 0.608221 0.653878
vn 0.000000 0.000000 1.000000
vn 0.000000 0.000000 1.000000
vn 0.000000 0.000000 1.000000
vn 0.000000 0.000000 1.000000
vn 0.000000 1.000000 0.000000
vn 0.000000 1.000000 0.000000
vn 0.000000 1.000000 0.000000
vn 0.000000 1.000000 0.000000
vn 0.000000 0.000000 -1.000000
vn 0.000000 0.000000 -1.000000
vn 0.000000 0.000000 -1.000000
vn 0.000000 0.000000 -1.000000
vn 0.000000 -1.000000 0.000000
vn 0.000000 -1.000000 0.000000
vn 0.000000 -1.000000 0.000000
vn 0.000000 -1.000000 0.000000
vn 1.000000 0.000000 0.000000
vn 1.000000 0.000000 0.000000
vn 1.000000 0.000000 0.000000
vn 1.000000 0.000000 0.000000
vn -1.000000 0.000000 0.000000
vn -1.000000 0.000000 0.000000
vn -1.000000 0.000000 0.000000
vn -1.000000 0.000000 0.000000
s off
g Cube4:Group2
usemtl StingrayPBS1SG
f 1/17/1 2/18/2 4/19/3 3/20/4
f 3/9/5 4/10/6 6/11/7 5/12/8
f 5/21/9 6/22/10 8/23/11 7/24/12
f 7/13/13 8/14/14 2/15/15 1/16/16
f 2/1/17 8/2/18 6/3/19 4/4/20
f 7/5/21 1/6/22 3/7/23 5/8/24
